<svg width="42" height="60" viewBox="0 0 42 60" fill="none" xmlns="http://www.w3.org/2000/svg">
<path d="M1.83763 60V56.9247H6.12543V60H7.96307V52.3404H6.12543V55.3814H1.83763V52.3404H0V60H1.83763Z" fill="#282828"/>
<path d="M15.8951 60V58.4566H10.7865V56.9133H15.7114V55.3814H10.7865V53.8838H15.8951V52.3404H8.94888V60H15.8951Z" fill="#282828"/>
<path d="M23.451 60V58.4566H18.5629V52.3404H16.7253V60H23.451Z" fill="#282828"/>
<path d="M26.0283 60V57.885H28.4785C30.3774 57.885 31.6025 56.8676 31.6025 55.107C31.6025 53.3465 30.3774 52.3404 28.4785 52.3404H24.1907V60H26.0283ZM28.2825 53.8838C29.2993 53.8838 29.7771 54.1696 29.7771 55.107C29.7771 56.0673 29.2993 56.3417 28.2825 56.3417H26.0283V53.8838H28.2825Z" fill="#282828"/>
<path d="M34.0919 60V52.3404H32.2542V60H34.0919Z" fill="#282828"/>
<path d="M42 60V58.4566H36.8914V56.9133H41.8162V55.3814H36.8914V53.8838H42V52.3404H35.0538V60H42Z" fill="#282828"/>
<path fill-rule="evenodd" clip-rule="evenodd" d="M2.54541 0V49.7872H39.7727V0H27.6818V18.8298H14.6363V0H2.54541ZM18.8008 28.8985C17.2873 29.3663 15.228 30.7741 13.0454 33.5106C12.1969 34.5745 10.3091 37.9787 10.8181 43.0851C11.0238 40.1965 12.4109 34.2065 19.3771 31.2273L19.4341 31.203C19.8568 31.0226 20.2931 30.8365 20.5847 30.4824C20.8105 30.2081 20.9224 29.9105 20.8736 29.6207C20.7346 28.795 19.5987 28.6519 18.8008 28.8985ZM32.1777 32.7742C26.3405 28.8978 20.6903 31.4633 17.8181 33.8298C22.9479 31.0233 28.4692 32.8228 31.1538 34.3714C31.5973 34.6272 32.1509 34.8906 32.5661 34.5907C32.7994 34.4222 32.8893 34.1655 32.901 33.9025C32.9221 33.4273 32.5731 33.0368 32.1777 32.7742ZM23.8636 33.8298C12.727 33.8298 11.4544 44.4681 12.7272 49.7872H32.4545C31.8621 47.4102 30.1664 46.1397 26.8542 43.6578L26.8529 43.6569C26.6078 43.4732 26.3539 43.283 26.0909 43.0851C23.0363 40.7872 23.5454 38.7234 24.1818 37.9787C25.7726 36.383 28 37.8723 28.9545 39.2553C28.4454 34.6596 25.2375 33.8298 23.8636 33.8298Z" fill="#04009A"/>
</svg>
